<mxfile host="app.diagrams.net" modified="2022-02-09T03:46:49.165Z" agent="5.0 (X11)" etag="MMpFNdsBIMMp3GWDbZVo" version="16.5.4" type="github">
  <diagram id="VDqW6k9L-1-ID_xiu1as" name="Page-1">
    <mxGraphModel dx="1355" dy="799" grid="1" gridSize="10" guides="1" tooltips="1" connect="1" arrows="1" fold="1" page="1" pageScale="1" pageWidth="1654" pageHeight="2336" math="0" shadow="0">
      <root>
        <mxCell id="0" />
        <mxCell id="1" parent="0" />
        <mxCell id="eY3_Sf3mMEw7NV4NrCe7-2" style="edgeStyle=orthogonalEdgeStyle;rounded=0;orthogonalLoop=1;jettySize=auto;html=1;" edge="1" parent="1" source="eY3_Sf3mMEw7NV4NrCe7-1">
          <mxGeometry relative="1" as="geometry">
            <mxPoint x="460" y="470" as="targetPoint" />
          </mxGeometry>
        </mxCell>
        <mxCell id="eY3_Sf3mMEw7NV4NrCe7-1" value="&lt;div&gt;DP-&amp;gt;loc&lt;/div&gt;&lt;div&gt;自车位置信息&lt;br&gt;&lt;/div&gt;" style="rounded=0;whiteSpace=wrap;html=1;" vertex="1" parent="1">
          <mxGeometry x="400" y="350" width="120" height="60" as="geometry" />
        </mxCell>
        <mxCell id="eY3_Sf3mMEw7NV4NrCe7-8" style="edgeStyle=orthogonalEdgeStyle;rounded=0;orthogonalLoop=1;jettySize=auto;html=1;entryX=0.5;entryY=0;entryDx=0;entryDy=0;" edge="1" parent="1" source="eY3_Sf3mMEw7NV4NrCe7-4" target="eY3_Sf3mMEw7NV4NrCe7-7">
          <mxGeometry relative="1" as="geometry" />
        </mxCell>
        <mxCell id="eY3_Sf3mMEw7NV4NrCe7-4" value="&lt;div&gt;egp_point&lt;/div&gt;&lt;div&gt;自车位置坐标&lt;/div&gt;" style="rounded=0;whiteSpace=wrap;html=1;" vertex="1" parent="1">
          <mxGeometry x="400" y="470" width="120" height="60" as="geometry" />
        </mxCell>
        <mxCell id="eY3_Sf3mMEw7NV4NrCe7-11" style="edgeStyle=orthogonalEdgeStyle;rounded=0;orthogonalLoop=1;jettySize=auto;html=1;entryX=0.5;entryY=0;entryDx=0;entryDy=0;" edge="1" parent="1" source="eY3_Sf3mMEw7NV4NrCe7-5">
          <mxGeometry relative="1" as="geometry">
            <mxPoint x="710" y="470" as="targetPoint" />
          </mxGeometry>
        </mxCell>
        <mxCell id="eY3_Sf3mMEw7NV4NrCe7-5" value="&lt;div&gt;DP-&amp;gt;path&lt;/div&gt;&lt;div&gt;自车上一帧轨迹信息&lt;br&gt;&lt;/div&gt;" style="rounded=0;whiteSpace=wrap;html=1;" vertex="1" parent="1">
          <mxGeometry x="650" y="350" width="120" height="60" as="geometry" />
        </mxCell>
        <mxCell id="eY3_Sf3mMEw7NV4NrCe7-7" value="&lt;div&gt;SetEgoParallelLanes()&lt;br&gt;&lt;/div&gt;&lt;div&gt;获取自车所在车道信息&lt;/div&gt;" style="rounded=0;whiteSpace=wrap;html=1;" vertex="1" parent="1">
          <mxGeometry x="390" y="580" width="140" height="60" as="geometry" />
        </mxCell>
        <mxCell id="eY3_Sf3mMEw7NV4NrCe7-15" style="edgeStyle=orthogonalEdgeStyle;rounded=0;orthogonalLoop=1;jettySize=auto;html=1;" edge="1" parent="1" source="eY3_Sf3mMEw7NV4NrCe7-14" target="eY3_Sf3mMEw7NV4NrCe7-1">
          <mxGeometry relative="1" as="geometry" />
        </mxCell>
        <mxCell id="eY3_Sf3mMEw7NV4NrCe7-16" style="edgeStyle=orthogonalEdgeStyle;rounded=0;orthogonalLoop=1;jettySize=auto;html=1;" edge="1" parent="1" source="eY3_Sf3mMEw7NV4NrCe7-14" target="eY3_Sf3mMEw7NV4NrCe7-5">
          <mxGeometry relative="1" as="geometry">
            <Array as="points">
              <mxPoint x="580" y="310" />
              <mxPoint x="710" y="310" />
            </Array>
          </mxGeometry>
        </mxCell>
        <mxCell id="eY3_Sf3mMEw7NV4NrCe7-14" value="DataPool" style="rounded=0;whiteSpace=wrap;html=1;" vertex="1" parent="1">
          <mxGeometry x="520" y="210" width="120" height="60" as="geometry" />
        </mxCell>
        <mxCell id="eY3_Sf3mMEw7NV4NrCe7-18" style="edgeStyle=orthogonalEdgeStyle;rounded=0;orthogonalLoop=1;jettySize=auto;html=1;" edge="1" parent="1" source="eY3_Sf3mMEw7NV4NrCe7-17">
          <mxGeometry relative="1" as="geometry">
            <mxPoint x="710" y="620" as="targetPoint" />
          </mxGeometry>
        </mxCell>
        <mxCell id="eY3_Sf3mMEw7NV4NrCe7-20" value="" style="edgeStyle=orthogonalEdgeStyle;rounded=0;orthogonalLoop=1;jettySize=auto;html=1;" edge="1" parent="1" source="eY3_Sf3mMEw7NV4NrCe7-17" target="eY3_Sf3mMEw7NV4NrCe7-19">
          <mxGeometry relative="1" as="geometry" />
        </mxCell>
        <mxCell id="eY3_Sf3mMEw7NV4NrCe7-17" value="判断轨迹点是否在junction内" style="rhombus;whiteSpace=wrap;html=1;" vertex="1" parent="1">
          <mxGeometry x="605" y="470" width="210" height="80" as="geometry" />
        </mxCell>
        <mxCell id="eY3_Sf3mMEw7NV4NrCe7-19" value="自车不在路口内" style="whiteSpace=wrap;html=1;" vertex="1" parent="1">
          <mxGeometry x="880" y="480" width="120" height="60" as="geometry" />
        </mxCell>
        <mxCell id="eY3_Sf3mMEw7NV4NrCe7-21" value="否" style="text;html=1;align=center;verticalAlign=middle;resizable=0;points=[];autosize=1;strokeColor=none;fillColor=none;" vertex="1" parent="1">
          <mxGeometry x="835" y="480" width="30" height="20" as="geometry" />
        </mxCell>
        <mxCell id="eY3_Sf3mMEw7NV4NrCe7-22" value="是" style="text;html=1;align=center;verticalAlign=middle;resizable=0;points=[];autosize=1;strokeColor=none;fillColor=none;" vertex="1" parent="1">
          <mxGeometry x="705" y="570" width="30" height="20" as="geometry" />
        </mxCell>
        <mxCell id="eY3_Sf3mMEw7NV4NrCe7-23" value="&lt;div&gt;in_junction&lt;br&gt;&lt;/div&gt;&lt;div&gt;自车在路口内&lt;/div&gt;" style="whiteSpace=wrap;html=1;" vertex="1" parent="1">
          <mxGeometry x="650" y="620" width="120" height="60" as="geometry" />
        </mxCell>
      </root>
    </mxGraphModel>
  </diagram>
</mxfile>
